<mxfile host="app.diagrams.net" modified="2021-11-03T05:26:50.952Z" agent="5.0 (Windows)" etag="J4ikS9-QpDqyLn3uBAtG" version="15.5.9" type="github">
  <diagram id="2UxOACo_O_TKAJXbDPBZ" name="Page-1">
    <mxGraphModel dx="1108" dy="423" grid="1" gridSize="10" guides="1" tooltips="1" connect="1" arrows="1" fold="1" page="1" pageScale="1" pageWidth="850" pageHeight="1100" math="0" shadow="0">
      <root>
        <mxCell id="0" />
        <mxCell id="1" parent="0" />
        <mxCell id="qAsrmmUzswC5HKgWTjrL-9" style="edgeStyle=orthogonalEdgeStyle;rounded=0;orthogonalLoop=1;jettySize=auto;html=1;entryX=0.5;entryY=0;entryDx=0;entryDy=0;entryPerimeter=0;" edge="1" parent="1" source="qAsrmmUzswC5HKgWTjrL-1" target="qAsrmmUzswC5HKgWTjrL-8">
          <mxGeometry relative="1" as="geometry" />
        </mxCell>
        <mxCell id="qAsrmmUzswC5HKgWTjrL-23" style="edgeStyle=orthogonalEdgeStyle;rounded=0;orthogonalLoop=1;jettySize=auto;html=1;entryX=0;entryY=0.5;entryDx=0;entryDy=0;" edge="1" parent="1" source="qAsrmmUzswC5HKgWTjrL-1" target="qAsrmmUzswC5HKgWTjrL-15">
          <mxGeometry relative="1" as="geometry">
            <mxPoint x="250" y="60" as="targetPoint" />
          </mxGeometry>
        </mxCell>
        <mxCell id="qAsrmmUzswC5HKgWTjrL-1" value="&lt;div&gt;DeviceID:xxxxxx&lt;/div&gt;&lt;div&gt;&lt;br&gt;&lt;/div&gt;&lt;div&gt;&lt;br&gt;&lt;/div&gt;&lt;div&gt;Invoice 1234&lt;br&gt;&lt;/div&gt;&lt;div&gt;&lt;br&gt;&lt;/div&gt;&lt;div&gt;&lt;br&gt;&lt;/div&gt;" style="rounded=1;whiteSpace=wrap;html=1;" vertex="1" parent="1">
          <mxGeometry x="170" y="200" width="140" height="120" as="geometry" />
        </mxCell>
        <mxCell id="qAsrmmUzswC5HKgWTjrL-5" value="T106" style="shape=step;perimeter=stepPerimeter;whiteSpace=wrap;html=1;fixedSize=1;" vertex="1" parent="1">
          <mxGeometry x="550" y="190" width="120" height="80" as="geometry" />
        </mxCell>
        <mxCell id="qAsrmmUzswC5HKgWTjrL-6" value="T108" style="shape=step;perimeter=stepPerimeter;whiteSpace=wrap;html=1;fixedSize=1;" vertex="1" parent="1">
          <mxGeometry x="650" y="300" width="120" height="80" as="geometry" />
        </mxCell>
        <mxCell id="qAsrmmUzswC5HKgWTjrL-7" value="" style="aspect=fixed;html=1;points=[];align=center;image;fontSize=12;image=img/lib/azure2/general/Globe_Error.svg;" vertex="1" parent="1">
          <mxGeometry x="124" y="180" width="56.00000000000001" height="66" as="geometry" />
        </mxCell>
        <mxCell id="qAsrmmUzswC5HKgWTjrL-8" value="1234:DeviceID:xxxxxx" style="shape=cylinder3;whiteSpace=wrap;html=1;boundedLbl=1;backgroundOutline=1;size=15;" vertex="1" parent="1">
          <mxGeometry x="180" y="420" width="160" height="80" as="geometry" />
        </mxCell>
        <mxCell id="qAsrmmUzswC5HKgWTjrL-10" value="" style="shape=table;html=1;whiteSpace=wrap;startSize=0;container=1;collapsible=0;childLayout=tableLayout;" vertex="1" parent="1">
          <mxGeometry x="320" y="40" width="240" height="80" as="geometry" />
        </mxCell>
        <mxCell id="qAsrmmUzswC5HKgWTjrL-11" value="" style="shape=partialRectangle;html=1;whiteSpace=wrap;collapsible=0;dropTarget=0;pointerEvents=0;fillColor=none;top=0;left=0;bottom=0;right=0;points=[[0,0.5],[1,0.5]];portConstraint=eastwest;" vertex="1" parent="qAsrmmUzswC5HKgWTjrL-10">
          <mxGeometry width="240" height="26" as="geometry" />
        </mxCell>
        <mxCell id="qAsrmmUzswC5HKgWTjrL-12" value="DEVICEID" style="shape=partialRectangle;html=1;whiteSpace=wrap;connectable=0;fillColor=none;top=0;left=0;bottom=0;right=0;overflow=hidden;pointerEvents=1;" vertex="1" parent="qAsrmmUzswC5HKgWTjrL-11">
          <mxGeometry width="80" height="26" as="geometry">
            <mxRectangle width="80" height="26" as="alternateBounds" />
          </mxGeometry>
        </mxCell>
        <mxCell id="qAsrmmUzswC5HKgWTjrL-13" value="" style="shape=partialRectangle;html=1;whiteSpace=wrap;connectable=0;fillColor=none;top=0;left=0;bottom=0;right=0;overflow=hidden;pointerEvents=1;" vertex="1" parent="qAsrmmUzswC5HKgWTjrL-11">
          <mxGeometry x="80" width="80" height="26" as="geometry">
            <mxRectangle width="80" height="26" as="alternateBounds" />
          </mxGeometry>
        </mxCell>
        <mxCell id="qAsrmmUzswC5HKgWTjrL-14" value="" style="shape=partialRectangle;html=1;whiteSpace=wrap;connectable=0;fillColor=none;top=0;left=0;bottom=0;right=0;overflow=hidden;pointerEvents=1;" vertex="1" parent="qAsrmmUzswC5HKgWTjrL-11">
          <mxGeometry x="160" width="80" height="26" as="geometry">
            <mxRectangle width="80" height="26" as="alternateBounds" />
          </mxGeometry>
        </mxCell>
        <mxCell id="qAsrmmUzswC5HKgWTjrL-15" value="" style="shape=partialRectangle;html=1;whiteSpace=wrap;collapsible=0;dropTarget=0;pointerEvents=0;fillColor=none;top=0;left=0;bottom=0;right=0;points=[[0,0.5],[1,0.5]];portConstraint=eastwest;" vertex="1" parent="qAsrmmUzswC5HKgWTjrL-10">
          <mxGeometry y="26" width="240" height="28" as="geometry" />
        </mxCell>
        <mxCell id="qAsrmmUzswC5HKgWTjrL-16" value="XXXXXXX" style="shape=partialRectangle;html=1;whiteSpace=wrap;connectable=0;fillColor=none;top=0;left=0;bottom=0;right=0;overflow=hidden;pointerEvents=1;" vertex="1" parent="qAsrmmUzswC5HKgWTjrL-15">
          <mxGeometry width="80" height="28" as="geometry">
            <mxRectangle width="80" height="28" as="alternateBounds" />
          </mxGeometry>
        </mxCell>
        <mxCell id="qAsrmmUzswC5HKgWTjrL-17" value="" style="shape=partialRectangle;html=1;whiteSpace=wrap;connectable=0;fillColor=none;top=0;left=0;bottom=0;right=0;overflow=hidden;pointerEvents=1;" vertex="1" parent="qAsrmmUzswC5HKgWTjrL-15">
          <mxGeometry x="80" width="80" height="28" as="geometry">
            <mxRectangle width="80" height="28" as="alternateBounds" />
          </mxGeometry>
        </mxCell>
        <mxCell id="qAsrmmUzswC5HKgWTjrL-18" value="" style="shape=partialRectangle;html=1;whiteSpace=wrap;connectable=0;fillColor=none;top=0;left=0;bottom=0;right=0;overflow=hidden;pointerEvents=1;" vertex="1" parent="qAsrmmUzswC5HKgWTjrL-15">
          <mxGeometry x="160" width="80" height="28" as="geometry">
            <mxRectangle width="80" height="28" as="alternateBounds" />
          </mxGeometry>
        </mxCell>
        <mxCell id="qAsrmmUzswC5HKgWTjrL-19" value="" style="shape=partialRectangle;html=1;whiteSpace=wrap;collapsible=0;dropTarget=0;pointerEvents=0;fillColor=none;top=0;left=0;bottom=0;right=0;points=[[0,0.5],[1,0.5]];portConstraint=eastwest;" vertex="1" parent="qAsrmmUzswC5HKgWTjrL-10">
          <mxGeometry y="54" width="240" height="26" as="geometry" />
        </mxCell>
        <mxCell id="qAsrmmUzswC5HKgWTjrL-20" value="" style="shape=partialRectangle;html=1;whiteSpace=wrap;connectable=0;fillColor=none;top=0;left=0;bottom=0;right=0;overflow=hidden;pointerEvents=1;" vertex="1" parent="qAsrmmUzswC5HKgWTjrL-19">
          <mxGeometry width="80" height="26" as="geometry">
            <mxRectangle width="80" height="26" as="alternateBounds" />
          </mxGeometry>
        </mxCell>
        <mxCell id="qAsrmmUzswC5HKgWTjrL-21" value="" style="shape=partialRectangle;html=1;whiteSpace=wrap;connectable=0;fillColor=none;top=0;left=0;bottom=0;right=0;overflow=hidden;pointerEvents=1;" vertex="1" parent="qAsrmmUzswC5HKgWTjrL-19">
          <mxGeometry x="80" width="80" height="26" as="geometry">
            <mxRectangle width="80" height="26" as="alternateBounds" />
          </mxGeometry>
        </mxCell>
        <mxCell id="qAsrmmUzswC5HKgWTjrL-22" value="" style="shape=partialRectangle;html=1;whiteSpace=wrap;connectable=0;fillColor=none;top=0;left=0;bottom=0;right=0;overflow=hidden;pointerEvents=1;" vertex="1" parent="qAsrmmUzswC5HKgWTjrL-19">
          <mxGeometry x="160" width="80" height="26" as="geometry">
            <mxRectangle width="80" height="26" as="alternateBounds" />
          </mxGeometry>
        </mxCell>
        <mxCell id="qAsrmmUzswC5HKgWTjrL-24" value="&lt;div&gt;&lt;b&gt;&lt;br&gt;&lt;/b&gt;&lt;/div&gt;&lt;div&gt;&lt;b&gt;&lt;br&gt;&lt;/b&gt;&lt;/div&gt;&lt;div&gt;&lt;b&gt;T106 ,T108 If these Gets Down or Patched Always Device Id will be changed&amp;nbsp; &lt;/b&gt;&lt;/div&gt;" style="text;html=1;strokeColor=none;fillColor=none;spacing=5;spacingTop=-20;whiteSpace=wrap;overflow=hidden;rounded=0;" vertex="1" parent="1">
          <mxGeometry x="650" y="110" width="190" height="80" as="geometry" />
        </mxCell>
        <mxCell id="qAsrmmUzswC5HKgWTjrL-25" value="T109" style="shape=step;perimeter=stepPerimeter;whiteSpace=wrap;html=1;fixedSize=1;" vertex="1" parent="1">
          <mxGeometry x="710" y="420" width="120" height="80" as="geometry" />
        </mxCell>
        <mxCell id="qAsrmmUzswC5HKgWTjrL-26" value="&lt;div&gt;1&lt;/div&gt;&lt;div&gt;&lt;br&gt;&lt;/div&gt;&lt;div&gt;1)We can Put a Assumption like RetryFramework will work if Runtime DeviceID will be same as Lookup&lt;br&gt;&lt;/div&gt;" style="text;html=1;strokeColor=none;fillColor=none;spacing=5;spacingTop=-20;whiteSpace=wrap;overflow=hidden;rounded=0;" vertex="1" parent="1">
          <mxGeometry x="230" y="600" width="370" height="120" as="geometry" />
        </mxCell>
      </root>
    </mxGraphModel>
  </diagram>
</mxfile>
